<?xml version="1.0" encoding="UTF-8" standalone="no"?>
<!DOCTYPE svg PUBLIC "-//W3C//DTD SVG 1.1//EN"
 "http://www.w3.org/Graphics/SVG/1.1/DTD/svg11.dtd">
<!-- Generated by graphviz version 10.0.1 (20240210.2158)
 -->
<!-- Title: G Pages: 1 -->
<svg width="310pt" height="185pt"
 viewBox="0.00 0.00 310.00 185.00" xmlns="http://www.w3.org/2000/svg" xmlns:xlink="http://www.w3.org/1999/xlink">
<g id="graph0" class="graph" transform="scale(1 1) rotate(0) translate(4 181)">
<title>G</title>
<polygon fill="white" stroke="none" points="-4,4 -4,-181 306,-181 306,4 -4,4"/>
<g id="clust1" class="cluster">
<title>cluster_men</title>
<path fill="none" stroke="black" d="M20,-92.5C20,-92.5 282,-92.5 282,-92.5 288,-92.5 294,-98.5 294,-104.5 294,-104.5 294,-157 294,-157 294,-163 288,-169 282,-169 282,-169 20,-169 20,-169 14,-169 8,-163 8,-157 8,-157 8,-104.5 8,-104.5 8,-98.5 14,-92.5 20,-92.5"/>
<text text-anchor="middle" x="151" y="-151.7" font-family="Times,serif" font-size="14.00">Men</text>
</g>
<g id="clust2" class="cluster">
<title>cluster_women</title>
<path fill="none" stroke="black" d="M20,-8C20,-8 282,-8 282,-8 288,-8 294,-14 294,-20 294,-20 294,-72.5 294,-72.5 294,-78.5 288,-84.5 282,-84.5 282,-84.5 20,-84.5 20,-84.5 14,-84.5 8,-78.5 8,-72.5 8,-72.5 8,-20 8,-20 8,-14 14,-8 20,-8"/>
<text text-anchor="middle" x="151" y="-67.2" font-family="Times,serif" font-size="14.00">Women</text>
</g>
<!-- m1 -->
<g id="node1" class="node">
<title>m1</title>
<ellipse fill="none" stroke="black" cx="43" cy="-118.5" rx="27" ry="18"/>
<text text-anchor="middle" x="43" y="-113.45" font-family="Times,serif" font-size="14.00">m1</text>
</g>
<!-- w1 -->
<g id="node5" class="node">
<title>w1</title>
<ellipse fill="none" stroke="black" cx="43" cy="-34" rx="27" ry="18"/>
<text text-anchor="middle" x="43" y="-28.95" font-family="Times,serif" font-size="14.00">w1</text>
</g>
<!-- m1&#45;&gt;w1 -->
<g id="edge1" class="edge">
<title>m1&#45;&gt;w1</title>
<path fill="none" stroke="black" d="M43,-100C43,-89.5 43,-75.89 43,-63.83"/>
<polygon fill="black" stroke="black" points="46.5,-63.98 43,-53.98 39.5,-63.98 46.5,-63.98"/>
</g>
<!-- m2 -->
<g id="node2" class="node">
<title>m2</title>
<ellipse fill="none" stroke="black" cx="115" cy="-118.5" rx="27" ry="18"/>
<text text-anchor="middle" x="115" y="-113.45" font-family="Times,serif" font-size="14.00">m2</text>
</g>
<!-- w2 -->
<g id="node6" class="node">
<title>w2</title>
<ellipse fill="none" stroke="black" cx="115" cy="-34" rx="27" ry="18"/>
<text text-anchor="middle" x="115" y="-28.95" font-family="Times,serif" font-size="14.00">w2</text>
</g>
<!-- m2&#45;&gt;w2 -->
<g id="edge2" class="edge">
<title>m2&#45;&gt;w2</title>
<path fill="none" stroke="black" d="M115,-100C115,-89.5 115,-75.89 115,-63.83"/>
<polygon fill="black" stroke="black" points="118.5,-63.98 115,-53.98 111.5,-63.98 118.5,-63.98"/>
</g>
<!-- m3 -->
<g id="node3" class="node">
<title>m3</title>
<ellipse fill="none" stroke="black" cx="187" cy="-118.5" rx="27" ry="18"/>
<text text-anchor="middle" x="187" y="-113.45" font-family="Times,serif" font-size="14.00">m3</text>
</g>
<!-- w3 -->
<g id="node7" class="node">
<title>w3</title>
<ellipse fill="none" stroke="black" cx="187" cy="-34" rx="27" ry="18"/>
<text text-anchor="middle" x="187" y="-28.95" font-family="Times,serif" font-size="14.00">w3</text>
</g>
<!-- m3&#45;&gt;w3 -->
<g id="edge3" class="edge">
<title>m3&#45;&gt;w3</title>
<path fill="none" stroke="black" d="M187,-100C187,-89.5 187,-75.89 187,-63.83"/>
<polygon fill="black" stroke="black" points="190.5,-63.98 187,-53.98 183.5,-63.98 190.5,-63.98"/>
</g>
<!-- m4 -->
<g id="node4" class="node">
<title>m4</title>
<ellipse fill="none" stroke="black" cx="259" cy="-118.5" rx="27" ry="18"/>
<text text-anchor="middle" x="259" y="-113.45" font-family="Times,serif" font-size="14.00">m4</text>
</g>
<!-- w4 -->
<g id="node8" class="node">
<title>w4</title>
<ellipse fill="none" stroke="black" cx="259" cy="-34" rx="27" ry="18"/>
<text text-anchor="middle" x="259" y="-28.95" font-family="Times,serif" font-size="14.00">w4</text>
</g>
<!-- m4&#45;&gt;w4 -->
<g id="edge4" class="edge">
<title>m4&#45;&gt;w4</title>
<path fill="none" stroke="black" d="M259,-100C259,-89.5 259,-75.89 259,-63.83"/>
<polygon fill="black" stroke="black" points="262.5,-63.98 259,-53.98 255.5,-63.98 262.5,-63.98"/>
</g>
</g>
</svg>
